<svg id="Layer_1" data-name="Layer 1" xmlns="http://www.w3.org/2000/svg" viewBox="0 0 1287.1 262"><defs><style>.cls-1{fill:#e5e5e5;}.cls-2{fill:#fff;}</style></defs><title>logo (14)</title><polygon class="cls-1" points="139.7 108.8 230.3 58.7 229.2 0 143.3 47.6 53.7 0 53.7 61.2 139.7 108.8"/><polygon class="cls-2" points="53.7 0 53.7 58.7 53.7 156.5 139.7 204.1 229.2 156.5 229.2 0 283 30.6 283 187.1 139.7 262 0 183.7 0 30.6 53.7 0"/><path class="cls-2" d="M346,57.6h18.3l38,66.1h1l38-66.1h18.2V173.3H441.9V109.9l1-19.3h-1L408.7,148H397.8L364.7,90.7h-1l1,19.3v63.4H346Z" transform="translate(-1 -0.6)"/><path class="cls-2" d="M526.8,163.4h-1a37.17,37.17,0,0,1-9.3,8.7c-3.7,2.5-8.6,3.9-14.4,3.9a32.54,32.54,0,0,1-11.8-2.1,30.93,30.93,0,0,1-9.6-5.7,29.74,29.74,0,0,1-6.4-8.8,28.05,28.05,0,0,1,.2-22.7,25.25,25.25,0,0,1,6.9-8.6,34.15,34.15,0,0,1,10.6-5.4,46.77,46.77,0,0,1,13.2-1.9,53.33,53.33,0,0,1,13.2,1.5,55.46,55.46,0,0,1,8,2.9v-3.1a17.7,17.7,0,0,0-1.5-6.8,15.79,15.79,0,0,0-4.2-5.4,18.15,18.15,0,0,0-6.1-3.4,21.33,21.33,0,0,0-7.2-1.2,23.82,23.82,0,0,0-10.8,2.4,22.86,22.86,0,0,0-8.5,7.7l-14.2-9.6a36.18,36.18,0,0,1,14.1-12,45,45,0,0,1,19.1-4.1c11.8,0,20.8,3,27.2,8.9s9.6,14.4,9.6,25.5v49.3H526.3v-9.9h.5Zm-.3-23a40,40,0,0,0-7.9-3.4,34.15,34.15,0,0,0-10-1.3c-5.6,0-10.1,1.3-13.4,3.9s-5.1,5.7-5.1,9.4a9.45,9.45,0,0,0,1.3,5.1,17.52,17.52,0,0,0,3.3,3.9,12.32,12.32,0,0,0,4.7,2.4,16.85,16.85,0,0,0,5.4.8,22.11,22.11,0,0,0,8.4-1.7A20.19,20.19,0,0,0,520,155a23,23,0,0,0,4.7-6.5A19.8,19.8,0,0,0,526.5,140.4Z" transform="translate(-1 -0.6)"/><path class="cls-2" d="M566.4,109.4H553.2V94h13.2V69.7H584V94h19.8v15.4H584v36.3a18.81,18.81,0,0,0,.7,5.5,11.65,11.65,0,0,0,1.9,4.2,8.67,8.67,0,0,0,6.8,3.2,14.48,14.48,0,0,0,4-.4,12.54,12.54,0,0,0,3-1.2l5.4,15.9a39.19,39.19,0,0,1-6.9,2,49.72,49.72,0,0,1-8.3.8,27.16,27.16,0,0,1-9.8-1.8,22.93,22.93,0,0,1-7.5-5c-4.5-4.7-6.8-11.1-6.8-19.3V109.4Z" transform="translate(-1 -0.6)"/><path class="cls-2" d="M690.8,154.9a42.58,42.58,0,0,1-14.2,15.4c-6.2,4.1-13.7,6.2-22.7,6.2a41.36,41.36,0,0,1-16.4-3.2,38.32,38.32,0,0,1-13-8.8,42.9,42.9,0,0,1-8.6-13.3,44.72,44.72,0,0,1-3.1-17,47,47,0,0,1,2.9-16.3,39.64,39.64,0,0,1,8.2-13.4,37.82,37.82,0,0,1,12.7-9.1A39,39,0,0,1,653.1,92a40,40,0,0,1,16.4,3.1,35.5,35.5,0,0,1,19.9,21.8,54.11,54.11,0,0,1,2.6,17v1.4a7.6,7.6,0,0,0-.1,1.4,5.7,5.7,0,0,0-.1,1.3H630.7a23.84,23.84,0,0,0,2.8,9.9,21.49,21.49,0,0,0,5.6,6.9,20.69,20.69,0,0,0,7.4,4.1,24.22,24.22,0,0,0,7.9,1.3c5.2,0,9.5-1.2,12.8-3.7a31,31,0,0,0,8.3-9.3ZM674,123.7a26.07,26.07,0,0,0-1.5-5.4,15.28,15.28,0,0,0-3.7-5.5,22.29,22.29,0,0,0-6.5-4.3,22.85,22.85,0,0,0-9.6-1.8,19.94,19.94,0,0,0-13.3,4.6,22.37,22.37,0,0,0-7.5,12.3C631.8,123.7,674,123.7,674,123.7Z" transform="translate(-1 -0.6)"/><path class="cls-2" d="M704.2,94h16.5v12.1h1.5a20.75,20.75,0,0,1,4-5.8,24.08,24.08,0,0,1,5.6-4.5,39.73,39.73,0,0,1,6.6-3.1,20.19,20.19,0,0,1,6.7-1.2,21.28,21.28,0,0,1,6.6.8,20.84,20.84,0,0,1,5.1,2l-5.2,16.3a12.46,12.46,0,0,0-4-1.2,37.05,37.05,0,0,0-5.3-.4,17.74,17.74,0,0,0-8,1.8,25,25,0,0,0-6.4,4.8,21.37,21.37,0,0,0-4.3,7.3,76.56,76.56,0,0,0-2,8.9v41.7H704V94Z" transform="translate(-1 -0.6)"/><path class="cls-2" d="M775.6,80.4a12.16,12.16,0,0,1-8.7-20.7,11.46,11.46,0,0,1,8.7-3.5,11.7,11.7,0,0,1,8.5,3.5,12.32,12.32,0,0,1,0,17.2A11,11,0,0,1,775.6,80.4ZM767,173.3V94h17.6v79.4H767Z" transform="translate(-1 -0.6)"/><path class="cls-2" d="M851.9,163.4h-1a37.17,37.17,0,0,1-9.3,8.7c-3.7,2.5-8.6,3.9-14.4,3.9a32.54,32.54,0,0,1-11.8-2.1,30.93,30.93,0,0,1-9.6-5.7,29.74,29.74,0,0,1-6.4-8.8,28.05,28.05,0,0,1,.2-22.7,25.25,25.25,0,0,1,6.9-8.6,34.15,34.15,0,0,1,10.6-5.4,46.77,46.77,0,0,1,13.2-1.9,53.33,53.33,0,0,1,13.2,1.5,55.46,55.46,0,0,1,8,2.9v-3.1a17.7,17.7,0,0,0-1.5-6.8,15.79,15.79,0,0,0-4.2-5.4,18.15,18.15,0,0,0-6.1-3.4,21.33,21.33,0,0,0-7.2-1.2,22,22,0,0,0-19.3,10.1L799,105.8a36.18,36.18,0,0,1,14.1-12,45,45,0,0,1,19.1-4.1c11.8,0,20.8,3,27.2,8.9S869,113,869,124.1v49.3H851.4v-9.9h.5Zm.2-23a40,40,0,0,0-7.9-3.4,34.15,34.15,0,0,0-10-1.3c-5.6,0-10.1,1.3-13.4,3.9s-5.1,5.7-5.1,9.4a9.45,9.45,0,0,0,1.3,5.1,17.52,17.52,0,0,0,3.3,3.9,12.32,12.32,0,0,0,4.7,2.4,16.85,16.85,0,0,0,5.4.8,22.11,22.11,0,0,0,8.4-1.7,20.19,20.19,0,0,0,6.8-4.5,23,23,0,0,0,4.7-6.5A19.8,19.8,0,0,0,852.1,140.4Z" transform="translate(-1 -0.6)"/><path class="cls-2" d="M885,173.3V57.6h17.6V173.3Z" transform="translate(-1 -0.6)"/><path class="cls-2" d="M956.8,176a48.67,48.67,0,0,1-13.6-2,39.4,39.4,0,0,1-12.1-6.1,44.38,44.38,0,0,1-9.8-10,45.7,45.7,0,0,1-6.5-13.9l17.5-7.2a41.62,41.62,0,0,0,3.3,8.5,24,24,0,0,0,21.3,13.1,25.81,25.81,0,0,0,7.8-1.1,19.75,19.75,0,0,0,6.5-3.2,14.75,14.75,0,0,0,4.4-5.2,15,15,0,0,0,1.7-7.2,15.41,15.41,0,0,0-1.3-6.5,14.63,14.63,0,0,0-4.1-5.3,29.56,29.56,0,0,0-7.3-4.6,99.7,99.7,0,0,0-10.8-4.4l-7.3-2.6a61.75,61.75,0,0,1-9.6-4.3,41.57,41.57,0,0,1-8.9-6.5,31.47,31.47,0,0,1-6.5-9A27,27,0,0,1,919,86.4a29.68,29.68,0,0,1,2.6-12.2,31,31,0,0,1,7.5-10.1,34.19,34.19,0,0,1,11.6-6.8,41.43,41.43,0,0,1,14.8-2.5,44.23,44.23,0,0,1,14.8,2.3,34,34,0,0,1,10.8,6,34.42,34.42,0,0,1,7.1,7.8,42.54,42.54,0,0,1,4,8l-16.5,6.9a27.84,27.84,0,0,0-2.3-5,14,14,0,0,0-4-4.4,21,21,0,0,0-5.7-3.2,20,20,0,0,0-7.7-1.3,21.5,21.5,0,0,0-7.3,1.1,19.86,19.86,0,0,0-6,3,15.46,15.46,0,0,0-4,4.5,11.09,11.09,0,0,0-1.4,5.6,11.71,11.71,0,0,0,5.1,9.9,55.21,55.21,0,0,0,15,7.2l7.3,2.6a83.85,83.85,0,0,1,12.5,5.3,43.38,43.38,0,0,1,9.9,7.4,30.93,30.93,0,0,1,6.5,9.9,35.22,35.22,0,0,1,2.3,13.1c0,6.1-1.2,11.2-3.6,15.4a32.84,32.84,0,0,1-9.3,10.6,38.56,38.56,0,0,1-12.7,6.2A39.92,39.92,0,0,1,956.8,176Z" transform="translate(-1 -0.6)"/><path class="cls-2" d="M1015,109.4h-14.3V94H1015V69.7h17.6V94h19.8v15.4h-19.8v36.3a18.81,18.81,0,0,0,.7,5.5,11.65,11.65,0,0,0,1.9,4.2,8.67,8.67,0,0,0,6.8,3.2,14.48,14.48,0,0,0,4-.4,12.54,12.54,0,0,0,3-1.2l5.4,15.9a39.19,39.19,0,0,1-6.9,2,49.72,49.72,0,0,1-8.3.8,27.16,27.16,0,0,1-9.8-1.8,22.93,22.93,0,0,1-7.5-5c-4.5-4.7-6.8-11.1-6.8-19.3V109.4Z" transform="translate(-1 -0.6)"/><path class="cls-2" d="M1065.7,94h17.6v12.1h.6a20.75,20.75,0,0,1,4-5.8,24.08,24.08,0,0,1,5.6-4.5,39.73,39.73,0,0,1,6.6-3.1,20.19,20.19,0,0,1,6.7-1.2,21.28,21.28,0,0,1,6.6.8,20.84,20.84,0,0,1,5.1,2l-5.2,16.3a12.46,12.46,0,0,0-4-1.2,37.05,37.05,0,0,0-5.3-.4,17.74,17.74,0,0,0-8,1.8,25,25,0,0,0-6.4,4.8,21.37,21.37,0,0,0-4.3,7.3,85.09,85.09,0,0,0-2.1,8.9v41.7h-17.6V94Z" transform="translate(-1 -0.6)"/><path class="cls-2" d="M1173.8,163.4h-1a37.17,37.17,0,0,1-9.3,8.7c-3.7,2.5-8.6,3.9-14.4,3.9a32.54,32.54,0,0,1-11.8-2.1,30.93,30.93,0,0,1-9.6-5.7,29.74,29.74,0,0,1-6.4-8.8,28.05,28.05,0,0,1,.2-22.7,24.12,24.12,0,0,1,6.9-8.6,34.15,34.15,0,0,1,10.6-5.4,46.77,46.77,0,0,1,13.2-1.9,53.33,53.33,0,0,1,13.2,1.5,55.46,55.46,0,0,1,8,2.9v-3.1a17.7,17.7,0,0,0-1.5-6.8,15.79,15.79,0,0,0-4.2-5.4,18.15,18.15,0,0,0-6.1-3.4,21.33,21.33,0,0,0-7.2-1.2,23.82,23.82,0,0,0-10.8,2.4,22.86,22.86,0,0,0-8.5,7.7l-14.2-9.6a36.18,36.18,0,0,1,14.1-12,45,45,0,0,1,19.1-4.1c11.8,0,20.8,3,27.2,8.9s9.6,14.4,9.6,25.5v49.3h-17.6v-9.9h.5Zm.2-23a40,40,0,0,0-7.9-3.4,34.15,34.15,0,0,0-10-1.3c-5.6,0-10.1,1.3-13.4,3.9s-5.1,5.7-5.1,9.4a9.45,9.45,0,0,0,1.3,5.1,17.52,17.52,0,0,0,3.3,3.9,12.32,12.32,0,0,0,4.7,2.4,16.85,16.85,0,0,0,5.4.8,22.11,22.11,0,0,0,8.4-1.7,20.19,20.19,0,0,0,6.8-4.5,23,23,0,0,0,4.7-6.5A19.8,19.8,0,0,0,1174,140.4Z" transform="translate(-1 -0.6)"/><path class="cls-2" d="M1206.8,94h16.5v11h1.2a23.19,23.19,0,0,1,9.9-9.7,31.72,31.72,0,0,1,15.9-3.9,33.68,33.68,0,0,1,14.4,3.2,37.28,37.28,0,0,1,12,8.8,46.06,46.06,0,0,1,8.3,13.3,48.16,48.16,0,0,1,0,34,41.68,41.68,0,0,1-8.3,13.3,38.4,38.4,0,0,1-12,8.8,34.35,34.35,0,0,1-14.4,3.2,30.72,30.72,0,0,1-15.9-3.9,29.51,29.51,0,0,1-9.9-8.7h-1l.9,10.8v34.3h-17.6Zm40,65.3a22.35,22.35,0,0,0,8.8-1.8,23.77,23.77,0,0,0,7.5-5.1,23.37,23.37,0,0,0,5.1-8,29.62,29.62,0,0,0,0-21.4,26.1,26.1,0,0,0-5.1-8,21.71,21.71,0,0,0-7.5-5.1,22.71,22.71,0,0,0-8.8-1.8,22.52,22.52,0,0,0-16.3,6.9,23.37,23.37,0,0,0-5.1,8,28.1,28.1,0,0,0-2,10.8,28.47,28.47,0,0,0,2,10.8,25,25,0,0,0,5.1,8,21.32,21.32,0,0,0,7.4,5.1A26.92,26.92,0,0,0,1246.8,159.3Z" transform="translate(-1 -0.6)"/></svg>