<?xml version="1.0" encoding="utf-8"?>
<!-- Generator: Adobe Illustrator 23.0.1, SVG Export Plug-In . SVG Version: 6.00 Build 0)  -->
<svg version="1.1" id="Layer_1" xmlns="http://www.w3.org/2000/svg" xmlns:xlink="http://www.w3.org/1999/xlink" x="0px" y="0px"
	 viewBox="0 0 1287.1 262" style="enable-background:new 0 0 1287.1 262;" xml:space="preserve">
<style type="text/css">
	.st0{fill:#B8BDCC;}
	.st1{fill:#FFFFFF;}
</style>
<title>logo (14)</title>
<polygon class="st0" points="139.7,108.8 230.3,58.7 229.2,0 143.3,47.6 53.7,0 53.7,61.2 "/>
<polygon class="st1" points="53.7,0 53.7,58.7 53.7,156.5 139.7,204.1 229.2,156.5 229.2,0 283,30.6 283,187.1 139.7,262 0,183.7 
	0,30.6 "/>
<path class="st1" d="M345,57h18.3l38,66.1h1l38-66.1h18.2v115.7h-17.6v-63.4l1-19.3h-1l-33.2,57.4h-10.9l-33.1-57.3h-1l1,19.3v63.4
	H345V57z"/>
<path class="st1" d="M525.8,162.8h-1c-2.6,3.4-5.7,6.4-9.3,8.7c-3.7,2.5-8.6,3.9-14.4,3.9c-4,0-8-0.7-11.8-2.1
	c-3.5-1.3-6.8-3.2-9.6-5.7c-2.7-2.5-4.8-5.5-6.4-8.8c-3.1-7.3-3.1-15.5,0.2-22.7c1.6-3.3,4-6.3,6.9-8.6c3.2-2.4,6.8-4.2,10.6-5.4
	c4.3-1.3,8.7-1.9,13.2-1.9c4.4-0.1,8.9,0.5,13.2,1.5c2.7,0.8,5.4,1.7,8,2.9v-3.1c0-2.3-0.6-4.7-1.5-6.8c-1-2.1-2.4-3.9-4.2-5.4
	c-1.8-1.5-3.9-2.7-6.1-3.4c-2.3-0.8-4.7-1.2-7.2-1.2c-3.7-0.1-7.4,0.8-10.8,2.4c-3.4,1.8-6.4,4.5-8.5,7.7l-14.2-9.6
	c3.6-5.2,8.4-9.3,14.1-12c6-2.7,12.5-4.1,19.1-4.1c11.8,0,20.8,3,27.2,8.9s9.6,14.4,9.6,25.5v49.3h-17.6v-9.9L525.8,162.8
	L525.8,162.8z M525.5,139.8c-2.5-1.4-5.2-2.6-7.9-3.4c-3.3-0.9-6.6-1.4-10-1.3c-5.6,0-10.1,1.3-13.4,3.9s-5.1,5.7-5.1,9.4
	c-0.1,1.8,0.4,3.6,1.3,5.1c0.9,1.5,2,2.8,3.3,3.9c1.4,1.1,3,1.9,4.7,2.4c1.7,0.6,3.6,0.8,5.4,0.8c2.9,0,5.7-0.6,8.4-1.7
	c2.5-1,4.9-2.6,6.8-4.5c1.9-1.9,3.5-4.1,4.7-6.5C524.9,145.4,525.5,142.6,525.5,139.8z"/>
<path class="st1" d="M565.4,108.8h-13.2V93.4h13.2V69.1H583v24.3h19.8v15.4H583v36.3c0,1.9,0.2,3.7,0.7,5.5c0.3,1.5,1,2.9,1.9,4.2
	c1.7,2,4.2,3.2,6.8,3.2c1.3,0.1,2.7-0.1,4-0.4c1-0.3,2.1-0.7,3-1.2l5.4,15.9c-2.2,0.9-4.5,1.5-6.9,2c-2.7,0.5-5.5,0.8-8.3,0.8
	c-3.3,0-6.7-0.6-9.8-1.8c-2.8-1.2-5.4-2.9-7.5-5c-4.5-4.7-6.8-11.1-6.8-19.3v-40.2H565.4z"/>
<path class="st1" d="M689.8,154.3c-3.4,6.2-8.3,11.5-14.2,15.4c-6.2,4.1-13.7,6.2-22.7,6.2c-5.6,0.1-11.2-1-16.4-3.2
	c-4.9-2-9.3-5-13-8.8c-3.7-3.9-6.6-8.4-8.6-13.3c-2.1-5.4-3.2-11.2-3.1-17c0-5.6,1-11.1,2.9-16.3c1.8-5,4.6-9.5,8.2-13.4
	c3.6-3.9,7.9-7,12.7-9.1c5.2-2.3,10.8-3.5,16.5-3.4c5.6-0.1,11.2,0.9,16.4,3.1c9.5,4,16.7,12,19.9,21.8c1.8,5.5,2.6,11.2,2.6,17v1.4
	c-0.1,0.5-0.1,0.9-0.1,1.4c-0.1,0.4-0.1,0.9-0.1,1.3h-61.1c0.2,3.5,1.2,6.8,2.8,9.9c1.4,2.7,3.3,5,5.6,6.9c2.2,1.9,4.7,3.3,7.4,4.1
	c2.5,0.9,5.2,1.3,7.9,1.3c5.2,0,9.5-1.2,12.8-3.7c3.4-2.5,6.2-5.7,8.3-9.3L689.8,154.3z M673,123.1c-0.3-1.8-0.8-3.7-1.5-5.4
	c-0.8-2.1-2.1-4-3.7-5.5c-1.9-1.8-4.1-3.3-6.5-4.3c-3-1.3-6.3-1.9-9.6-1.8c-4.8-0.1-9.6,1.5-13.3,4.6c-3.8,3.2-6.4,7.5-7.5,12.3
	C630.8,123.1,673,123.1,673,123.1z"/>
<path class="st1" d="M703.2,93.4h16.5v12.1h1.5c1-2.1,2.3-4.1,4-5.8c1.6-1.8,3.5-3.3,5.6-4.5c2.1-1.2,4.3-2.3,6.6-3.1
	c2.1-0.8,4.4-1.2,6.7-1.2c2.2-0.1,4.5,0.2,6.6,0.8c1.8,0.4,3.5,1.1,5.1,2l-5.2,16.3c-1.3-0.6-2.6-1-4-1.2c-1.8-0.3-3.5-0.4-5.3-0.4
	c-2.8,0-5.5,0.6-8,1.8c-2.4,1.2-4.5,2.9-6.4,4.8c-1.9,2.1-3.4,4.6-4.3,7.3c-0.8,2.9-1.5,5.9-2,8.9v41.7H703V93.4H703.2z"/>
<path class="st1" d="M774.6,79.8c-6.7,0-12.2-5.4-12.2-12.1c0-3.2,1.2-6.3,3.5-8.6c2.3-2.4,5.4-3.6,8.7-3.5c3.2,0,6.3,1.2,8.5,3.5
	c4.7,4.8,4.7,12.4,0,17.2C780.9,78.7,777.8,79.9,774.6,79.8z M766,172.7V93.4h17.6v79.4L766,172.7L766,172.7z"/>
<path class="st1" d="M850.9,162.8h-1c-2.6,3.4-5.7,6.4-9.3,8.7c-3.7,2.5-8.6,3.9-14.4,3.9c-4,0-8-0.7-11.8-2.1
	c-3.5-1.3-6.8-3.2-9.6-5.7c-2.7-2.5-4.8-5.5-6.4-8.8c-3.1-7.3-3.1-15.5,0.2-22.7c1.6-3.3,4-6.3,6.9-8.6c3.2-2.4,6.8-4.2,10.6-5.4
	c4.3-1.3,8.7-1.9,13.2-1.9c4.4-0.1,8.9,0.5,13.2,1.5c2.7,0.8,5.4,1.7,8,2.9v-3.1c0-2.3-0.6-4.7-1.5-6.8c-1-2.1-2.4-3.9-4.2-5.4
	c-1.8-1.5-3.9-2.7-6.1-3.4c-2.3-0.8-4.7-1.2-7.2-1.2c-7.8-0.3-15.1,3.6-19.3,10.1l-14.2-9.6c3.6-5.2,8.4-9.3,14.1-12
	c6-2.7,12.5-4.1,19.1-4.1c11.8,0,20.8,3,27.2,8.9s9.6,14.4,9.6,25.5v49.3h-17.6v-9.9h0.5V162.8z M851.1,139.8
	c-2.5-1.4-5.2-2.6-7.9-3.4c-3.3-0.9-6.6-1.4-10-1.3c-5.6,0-10.1,1.3-13.4,3.9s-5.1,5.7-5.1,9.4c-0.1,1.8,0.4,3.6,1.3,5.1
	c0.9,1.5,2,2.8,3.3,3.9c1.4,1.1,3,1.9,4.7,2.4c1.7,0.6,3.6,0.8,5.4,0.8c2.9,0,5.7-0.6,8.4-1.7c2.5-1,4.9-2.6,6.8-4.5
	c1.9-1.9,3.5-4.1,4.7-6.5C850.5,145.4,851.1,142.6,851.1,139.8L851.1,139.8z"/>
<path class="st1" d="M884,172.7V57h17.6v115.7H884z"/>
<path class="st1" d="M955.8,175.4c-4.6,0-9.2-0.7-13.6-2c-4.4-1.3-8.4-3.4-12.1-6.1c-3.8-2.8-7.1-6.2-9.8-10
	c-2.9-4.2-5.1-8.9-6.5-13.9l17.5-7.2c0.8,2.9,1.9,5.8,3.3,8.5c4.1,8,12.3,13.1,21.3,13.1c2.6,0,5.3-0.3,7.8-1.1
	c2.3-0.7,4.5-1.7,6.5-3.2c1.9-1.4,3.4-3.1,4.4-5.2c1.2-2.2,1.7-4.7,1.7-7.2c0-2.2-0.4-4.5-1.3-6.5c-0.9-2.1-2.3-3.9-4.1-5.3
	c-2.2-1.9-4.7-3.4-7.3-4.6c-3.5-1.7-7.1-3.1-10.8-4.4l-7.3-2.6c-3.3-1.2-6.5-2.6-9.6-4.3c-3.2-1.8-6.2-3.9-8.9-6.5
	c-2.7-2.6-4.9-5.6-6.5-9c-1.8-3.8-2.6-7.9-2.5-12.1c0-4.2,0.9-8.4,2.6-12.2c1.8-3.8,4.3-7.3,7.5-10.1c3.4-3,7.3-5.3,11.6-6.8
	c4.7-1.7,9.8-2.6,14.8-2.5c5-0.1,10,0.7,14.8,2.3c3.9,1.3,7.6,3.4,10.8,6c2.8,2.2,5.1,4.9,7.1,7.8c1.6,2.5,3,5.2,4,8l-16.5,6.9
	c-0.6-1.7-1.4-3.4-2.3-5c-1-1.7-2.4-3.2-4-4.4c-1.7-1.4-3.6-2.4-5.7-3.2c-2.5-0.9-5.1-1.4-7.7-1.3c-2.5-0.1-4.9,0.3-7.3,1.1
	c-2.2,0.7-4.2,1.7-6,3c-1.6,1.2-3,2.8-4,4.5c-1,1.7-1.4,3.6-1.4,5.6c-0.1,3.9,1.8,7.7,5.1,9.9c4.6,3.1,9.7,5.6,15,7.2l7.3,2.6
	c4.3,1.4,8.5,3.2,12.5,5.3c3.6,2,7,4.5,9.9,7.4c2.8,2.9,5,6.2,6.5,9.9c1.6,4.2,2.4,8.6,2.3,13.1c0,6.1-1.2,11.2-3.6,15.4
	c-2.3,4.2-5.5,7.8-9.3,10.6c-3.8,2.8-8.1,4.9-12.7,6.2C965,174.6,960.4,175.4,955.8,175.4z"/>
<path class="st1" d="M1014,108.8h-14.3V93.4h14.3V69.1h17.6v24.3h19.8v15.4h-19.8v36.3c0,1.9,0.2,3.7,0.7,5.5c0.3,1.5,1,2.9,1.9,4.2
	c1.7,2,4.2,3.2,6.8,3.2c1.3,0.1,2.7-0.1,4-0.4c1-0.3,2.1-0.7,3-1.2l5.4,15.9c-2.2,0.9-4.5,1.5-6.9,2c-2.7,0.5-5.5,0.8-8.3,0.8
	c-3.3,0-6.7-0.6-9.8-1.8c-2.8-1.2-5.4-2.9-7.5-5c-4.5-4.7-6.8-11.1-6.8-19.3L1014,108.8L1014,108.8z"/>
<path class="st1" d="M1064.7,93.4h17.6v12.1h0.6c1-2.1,2.3-4.1,4-5.8c1.6-1.8,3.5-3.3,5.6-4.5c2.1-1.2,4.3-2.3,6.6-3.1
	c2.1-0.8,4.4-1.2,6.7-1.2c2.2-0.1,4.5,0.2,6.6,0.8c1.8,0.4,3.5,1.1,5.1,2l-5.2,16.3c-1.3-0.6-2.6-1-4-1.2c-1.8-0.3-3.5-0.4-5.3-0.4
	c-2.8,0-5.5,0.6-8,1.8c-2.4,1.2-4.5,2.9-6.4,4.8c-1.9,2.1-3.4,4.6-4.3,7.3c-0.9,2.9-1.6,5.9-2.1,8.9v41.7h-17.6V93.4H1064.7z"/>
<path class="st1" d="M1172.8,162.8h-1c-2.6,3.4-5.7,6.4-9.3,8.7c-3.7,2.5-8.6,3.9-14.4,3.9c-4,0-8-0.7-11.8-2.1
	c-3.5-1.3-6.8-3.2-9.6-5.7c-2.7-2.5-4.8-5.5-6.4-8.8c-3.1-7.3-3.1-15.5,0.2-22.7c1.6-3.4,4-6.3,6.9-8.6c3.2-2.4,6.8-4.2,10.6-5.4
	c4.3-1.3,8.7-1.9,13.2-1.9c4.4-0.1,8.9,0.5,13.2,1.5c2.7,0.8,5.4,1.7,8,2.9v-3.1c0-2.3-0.6-4.7-1.5-6.8c-1-2.1-2.4-3.9-4.2-5.4
	c-1.8-1.5-3.9-2.7-6.1-3.4c-2.3-0.8-4.7-1.2-7.2-1.2c-3.7-0.1-7.4,0.8-10.8,2.4c-3.4,1.8-6.4,4.5-8.5,7.7l-14.2-9.6
	c3.6-5.2,8.4-9.3,14.1-12c6-2.7,12.5-4.1,19.1-4.1c11.8,0,20.8,3,27.2,8.9s9.6,14.4,9.6,25.5v49.3h-17.6v-9.9L1172.8,162.8
	L1172.8,162.8z M1173,139.8c-2.5-1.4-5.2-2.6-7.9-3.4c-3.3-0.9-6.6-1.4-10-1.3c-5.6,0-10.1,1.3-13.4,3.9s-5.1,5.7-5.1,9.4
	c-0.1,1.8,0.4,3.6,1.3,5.1c0.9,1.5,2,2.8,3.3,3.9c1.4,1.1,3,1.9,4.7,2.4c1.7,0.6,3.6,0.8,5.4,0.8c2.9,0,5.7-0.6,8.4-1.7
	c2.5-1,4.9-2.6,6.8-4.5c1.9-1.9,3.5-4.1,4.7-6.5C1172.4,145.4,1173,142.6,1173,139.8z"/>
<path class="st1" d="M1205.8,93.4h16.5v11h1.2c2.2-4.2,5.7-7.6,9.9-9.7c4.9-2.7,10.4-4,15.9-3.9c5,0,9.9,1.1,14.4,3.2
	c4.6,2.1,8.6,5.1,12,8.8c3.5,3.9,6.3,8.4,8.3,13.3c4.1,11,4.1,23,0,34c-1.9,4.9-4.7,9.4-8.3,13.3c-3.4,3.7-7.5,6.7-12,8.8
	c-4.5,2.1-9.4,3.2-14.4,3.2c-5.6,0.2-11.1-1.2-15.9-3.9c-3.9-2.1-7.3-5.1-9.9-8.7h-1l0.9,10.8v34.3h-17.6V93.4z M1245.8,158.7
	c3,0,6-0.6,8.8-1.8c2.8-1.2,5.4-2.9,7.5-5.1c2.2-2.3,4-5,5.1-8c2.7-6.9,2.7-14.5,0-21.4c-1.2-3-2.9-5.7-5.1-8
	c-2.1-2.2-4.7-3.9-7.5-5.1c-2.8-1.2-5.8-1.8-8.8-1.8c-6.1,0-12,2.5-16.3,6.9c-2.2,2.3-4,5-5.1,8c-1.4,3.4-2.1,7.1-2,10.8
	c0,3.7,0.6,7.4,2,10.8c1.2,3,2.9,5.7,5.1,8c2.1,2.2,4.6,3.9,7.4,5.1C1239.8,158.1,1242.8,158.7,1245.8,158.7z"/>
</svg>
